<svg width="332" height="152" viewBox="0 0 332 152" xmlns="http://www.w3.org/2000/svg">
  <path d="M329.394 0.205137C329.813 -0.109072 330.508 -0.0565019 330.946 0.322555C331.384 0.701611 331.4 1.26361 330.981 1.57782L330.188 0.891479L329.394 0.205137ZM0.530446 146.646C0.0114265 146.345 -0.155228 145.785 0.158212 145.396L5.26602 139.053C5.57946 138.664 6.2543 138.593 6.77332 138.895C7.29234 139.196 7.459 139.756 7.14556 140.145L2.60528 145.783L10.1234 150.151C10.6424 150.453 10.8091 151.013 10.4957 151.402C10.1822 151.791 9.50737 151.862 8.98836 151.56L0.530446 146.646ZM330.188 0.891479L330.981 1.57782C308.202 18.663 293.634 34.4182 280.226 48.9396C266.822 63.4565 254.55 76.7724 236.407 88.8553C200.103 113.034 140.442 132.183 1.36119 146.826L1.09798 145.942L0.834771 145.057C139.834 130.423 199.027 111.317 234.902 87.4249C252.848 75.4726 264.998 62.2994 278.415 47.7683C291.828 33.2417 306.482 17.3903 329.394 0.205137L330.188 0.891479Z" fill="currentColor"/>
</svg>
