<svg width="332" height="152" viewBox="0 0 332 152" xmlns="http://www.w3.org/2000/svg">
  <path d="M1.89778 0.205569C1.47946 -0.108365 0.783181 -0.0569685 0.342608 0.320366C-0.097966 0.697701 -0.116002 1.25809 0.302323 1.57202L1.10005 0.888794L1.89778 0.205569ZM330.756 146.642C331.277 146.342 331.446 145.784 331.133 145.395L326.037 139.067C325.724 138.678 325.049 138.607 324.528 138.907C324.007 139.207 323.838 139.765 324.151 140.154L328.68 145.779L321.135 150.127C320.614 150.428 320.446 150.986 320.758 151.374C321.071 151.762 321.747 151.834 322.268 151.534L330.756 146.642ZM1.10005 0.888794L0.302323 1.57202C23.0501 18.6432 37.5769 34.38 50.947 48.8843C64.3131 63.3841 76.5498 76.6844 94.6747 88.7594C130.943 112.922 190.635 132.085 329.923 146.82L330.19 145.939L330.456 145.057C191.251 130.331 132.027 111.211 96.1885 87.3352C78.2598 75.391 66.1452 62.2332 52.7661 47.7192C39.3911 33.2097 24.7788 17.3768 1.89778 0.205569L1.10005 0.888794Z" fill="currentColor"/>
</svg>
